<svg width="200" height="200" viewBox="0 0 200 200" fill="none" xmlns="http://www.w3.org/2000/svg">
<g clip-path="url(#clip0_514_590)">
<path d="M87.8667 62.8031C91.8557 66.5884 96.3782 69.6476 101.156 72.3436C101.689 72.6449 102.06 72.8998 102.006 73.6646C101.558 79.4429 104.403 84.4411 109.574 87.0753C109.953 87.2684 110.324 87.4693 110.865 87.7551C108.036 89.501 105.353 91.1542 102.671 92.8073C102.71 92.8537 102.74 92.9 102.779 92.9464C110.27 90.7061 117.761 88.4813 125.237 86.1947C126.126 85.9243 126.59 86.156 127.007 86.8822C127.865 88.3654 127.827 89.949 127.564 91.5559C127.293 93.2013 126.852 94.839 126.721 96.4922C126.42 100.432 127.734 103.731 131.305 105.693C132.929 106.589 134.815 107.029 136.616 107.585C137.351 107.809 138.162 107.779 138.943 107.863C135.975 105.963 134.614 104.426 134.081 101.985C133.137 97.6509 136.377 94.0974 140.822 95.5574C141.139 95.6579 141.471 95.7119 141.997 95.8355C141.618 95.2562 141.371 94.8622 141.108 94.4759C137.629 89.4392 134.065 84.4565 130.718 79.3348C129.543 77.5426 128.182 76.7237 126.087 76.322C114.986 74.1822 104.604 70.196 95.35 63.5911C93.3014 62.1233 91.4537 60.3697 89.5211 58.7475C89.5829 58.678 89.6525 58.6084 89.7143 58.5389H95.1335C88.5625 53.4944 83.4061 47.5925 78.9301 41.0571C80.1902 46.0706 82.1769 50.698 85.5862 54.7073C84.04 54.097 82.5016 53.4867 80.7777 52.7992C80.9168 53.1854 80.9632 53.3245 81.0173 53.4558C82.4862 57.1716 85.045 60.0994 87.8899 62.8031H87.8667ZM118.101 79.6206C118.898 79.6361 119.284 80.1614 119.3 80.8953C119.315 81.6987 118.836 82.3167 118.055 82.2085C117.552 82.139 117.12 81.5596 116.795 81.3124C116.926 80.1923 117.235 79.6129 118.101 79.6283V79.6206ZM112.133 79.6515C112.203 79.412 112.303 79.1726 112.404 78.9408C113.161 77.2799 113.54 77.1409 115.334 77.8439C112.899 80.9957 113.239 83.1587 115.89 85.4376C113.216 85.4376 111.314 82.5021 112.133 79.6515ZM106.675 75.0783C108.252 75.5881 109.822 76.1057 111.306 76.5847C110.827 77.7048 110.154 78.74 109.953 79.8678C109.76 80.9493 110.054 82.1235 110.131 83.1742C107.758 81.9613 105.887 77.8052 106.675 75.0783Z" fill="#0D2D6C"/>
<path d="M71.6015 68.7283C62.8117 71.9574 56.9055 77.9675 54.6404 87.1139C52.182 97.0638 55.5603 105.515 62.1546 113.24C57.6244 96.5849 58.6835 81.3974 71.6015 68.736V68.7283Z" fill="#0D2D6C"/>
<path d="M198.879 178.532C196.513 180.139 193.406 181.615 189.788 181.816C177.187 182.511 166.534 172.522 155.518 161.522C155.116 161.12 155.1 160.471 155.479 160.046C156.476 158.934 157.443 157.791 158.37 156.601C164.346 148.976 168.675 140.486 171.451 131.209C173.414 124.642 174.489 117.937 174.752 111.1C174.899 107.245 174.713 103.398 174.288 99.5667C173.569 93.0854 172.123 86.7045 169.835 80.6017C166.117 70.675 160.767 62.0461 153.794 54.7304C153.338 52.4902 152.936 50.2422 152.541 47.9942C152.433 47.3916 152.139 47.2448 151.567 47.2835C149.704 47.4071 147.841 47.4998 145.986 47.6156C145.174 46.9667 144.339 46.3333 143.497 45.7153C141.061 43.9385 138.557 42.3317 135.967 40.8716C135.959 40.7635 135.936 40.6553 135.905 40.5704C134.985 38.0443 133.965 35.5491 133.029 33.023C132.766 32.3045 132.388 32.1114 131.645 32.1887C129.071 32.459 126.489 32.6444 123.923 32.9303C123.567 32.9689 123.119 33.2779 122.925 33.5869C122.678 33.9809 122.384 34.3671 122.052 34.7302C120.413 34.1895 118.758 33.6873 117.073 33.247C115.628 32.8608 114.174 32.5208 112.721 32.2041C112.829 31.3544 113.154 30.4892 113.703 29.6703C113.888 29.3999 113.981 28.9132 113.865 28.612C112.852 25.9236 111.801 23.243 110.719 20.5856C110.618 20.3307 110.224 20.0062 109.984 20.0294C107.224 20.238 104.464 20.4852 101.712 20.7865C101.372 20.8251 100.955 21.1573 100.777 21.474C99.2617 24.0542 96.2313 24.873 93.8271 23.3048C91.4074 21.7289 90.8972 18.6389 92.6134 16.2287C92.8221 15.9428 92.9381 15.4098 92.8221 15.0931C92.0026 12.8374 91.0904 10.6125 90.2555 8.36455C90.0468 7.80835 89.7607 7.63839 89.1964 7.72337C86.6839 8.1328 84.1637 8.5345 81.6436 8.89758C80.971 8.99801 80.7004 9.28383 80.5149 9.94819C79.4171 13.8725 78.2498 17.7737 77.1057 21.6826C77.0283 21.9298 76.9124 22.1693 76.7655 22.5246C75.2735 20.7401 73.8742 19.0792 72.4286 17.3411C72.1658 17.7119 71.9725 17.9668 71.7947 18.2449C69.1585 22.3856 67.3032 26.7657 66.1822 31.3621C65.386 31.4934 64.582 31.6325 63.7857 31.787C57.6244 32.938 51.6486 34.6761 45.897 37.1482C32.6389 42.8493 21.9164 51.679 13.7915 63.5756C6.02993 74.9547 1.58479 87.5542 0.332426 101.282C-0.479293 110.173 0.201005 118.941 2.31921 127.593C4.07407 134.762 6.78753 141.576 10.506 147.972C18.0511 160.966 28.5493 170.885 41.9466 177.706C50.7286 182.179 60.1214 184.712 69.8543 186.026C75.6446 186.806 81.4657 187.161 84.7899 187.138C96.2236 187.115 105.067 186.358 113.772 184.326C119.733 182.936 125.461 180.974 130.927 178.378C131.298 178.2 131.731 178.254 132.047 178.509C133.315 179.537 134.606 180.533 135.913 181.46C136.067 181.568 136.222 181.677 136.384 181.785C136.632 181.955 136.879 182.125 137.127 182.287C138.928 183.469 140.775 184.558 142.685 185.516C143.412 185.941 144.169 186.335 144.934 186.729C145.769 187.107 146.612 187.455 147.462 187.772L147.401 187.895C164.493 195.458 188.458 195.064 199.861 179.56C200.332 178.911 199.552 178.077 198.895 178.532H198.879ZM150.756 115.079C150.454 114.662 150.207 114.183 150.014 113.68C149.913 113.418 149.836 113.147 149.766 112.877C149.55 111.927 149.557 110.992 149.89 110.359C149.959 110.227 150.068 110.104 150.199 109.996C150.385 109.841 150.617 109.717 150.833 109.663C150.848 109.663 150.856 109.663 150.872 109.656C150.91 109.648 150.957 109.64 150.995 109.633H151.011C151.181 109.633 151.451 109.887 151.622 110.158C151.691 110.266 151.745 110.382 151.776 110.475C152.271 112.259 151.954 114.036 151.591 115.952C151.312 115.751 151.049 115.48 150.818 115.179C150.794 115.148 150.771 115.117 150.748 115.086L150.756 115.079ZM142.437 140.193C142.136 140.177 141.834 140.162 141.533 140.139C141.456 140.139 141.371 140.123 141.293 140.123C141 140.1 140.706 140.069 140.42 140.038C140.342 140.031 140.273 140.023 140.196 140.015C139.879 139.977 139.562 139.938 139.245 139.884C139.198 139.884 139.16 139.868 139.113 139.861C137.992 139.683 136.879 139.444 135.781 139.142C135.774 139.142 135.766 139.142 135.758 139.135C135.41 139.034 135.062 138.934 134.715 138.818C134.676 138.81 134.645 138.795 134.606 138.779C134.282 138.671 133.957 138.555 133.632 138.439C133.601 138.424 133.563 138.416 133.532 138.401C133.184 138.269 132.844 138.138 132.496 137.991C128.468 136.299 124.827 133.611 122.106 129.864C121.395 128.883 120.9 127.717 120.436 126.574C120.15 125.855 120.451 125.399 121.371 125.531C128.793 126.612 135.573 125.129 141.927 121.962C141.95 121.954 141.966 121.939 141.989 121.931C142.291 121.784 142.592 121.63 142.886 121.467C142.917 121.452 142.948 121.436 142.979 121.421C143.597 121.089 144.216 120.749 144.826 120.386C144.904 120.339 144.973 120.293 145.05 120.254C145.275 120.123 145.499 119.984 145.723 119.845C145.808 119.791 145.893 119.745 145.978 119.691C146.256 119.513 146.542 119.335 146.821 119.158C146.829 119.158 146.836 119.15 146.852 119.142C146.944 119.08 147.045 119.026 147.13 118.972C147.153 118.957 147.184 118.941 147.2 118.933C147.656 119.258 148.089 119.559 148.514 119.861C149.047 120.231 149.565 120.602 150.099 120.981C150.091 121.012 150.083 121.042 150.075 121.073C149.921 121.599 149.774 122.147 149.604 122.703C149.503 123.028 149.395 123.352 149.264 123.661C149.264 123.669 149.264 123.677 149.256 123.684C149.155 123.939 148.877 124.171 148.591 124.333C148.498 124.387 148.398 124.426 148.305 124.457C147.331 124.789 146.38 124.812 145.445 124.673C145.282 124.65 145.12 124.619 144.958 124.588C144.904 124.581 144.849 124.565 144.795 124.557C144.672 124.526 144.548 124.503 144.432 124.472C143.906 124.333 143.388 124.163 142.87 123.986C142.677 123.916 142.484 123.839 142.283 123.754C142.113 123.684 141.943 123.607 141.757 123.538C141.757 124.225 141.904 124.851 142.175 125.407C142.994 127.068 145.012 128.134 148.29 128.667C148.058 132.421 148.63 136.037 150.392 139.428C150.06 139.505 149.72 139.583 149.38 139.652C149.271 139.675 149.163 139.691 149.055 139.714C148.823 139.76 148.583 139.799 148.344 139.838C148.22 139.861 148.096 139.876 147.973 139.892C147.748 139.923 147.517 139.953 147.292 139.984C147.169 140 147.045 140.015 146.914 140.031C146.674 140.054 146.442 140.077 146.202 140.1C146.086 140.108 145.978 140.123 145.862 140.131C145.576 140.154 145.298 140.17 145.012 140.185C144.942 140.185 144.88 140.193 144.811 140.193C144.084 140.224 143.35 140.224 142.623 140.193C142.561 140.193 142.499 140.193 142.437 140.185V140.193ZM81.4967 25.1434C82.5867 21.9066 83.3675 18.5694 84.272 15.2708C84.5812 14.1429 85.2074 13.6099 85.9959 13.7798C86.5603 13.9034 86.8076 15.1163 86.483 16.0819C85.5398 18.8784 85.5166 21.6594 86.7381 24.3863C88.2146 27.6772 91.2296 29.7398 94.4919 30.3038C94.4996 30.3038 94.5151 30.3038 94.5228 30.3038C94.8862 30.3656 95.2495 30.4119 95.6206 30.4351C95.6515 30.4351 95.6824 30.4351 95.7134 30.4351C96.069 30.4583 96.4169 30.4583 96.7725 30.4351C96.8188 30.4351 96.8652 30.4351 96.9039 30.4351C97.244 30.4196 97.5919 30.381 97.9321 30.3269C97.9862 30.3192 98.0403 30.3115 98.0867 30.3038C98.3031 30.2651 98.5273 30.2188 98.7438 30.1724C98.7515 30.1724 98.767 30.1724 98.7747 30.1724C100.375 29.7784 101.906 28.9905 103.197 27.7699C104.178 26.8506 105.214 27.1983 106.243 27.0051C106.343 26.9897 106.559 27.1365 106.567 27.2292C106.706 28.1485 107.162 29.1913 106.884 29.9638C106.521 30.9758 106.328 31.9569 106.273 32.9071C106.273 32.9226 106.273 32.9457 106.273 32.9612C106.273 33.0848 106.266 33.2084 106.266 33.332C106.266 33.3706 106.266 33.4015 106.266 33.4401C106.266 33.556 106.266 33.6642 106.273 33.78C106.273 33.8264 106.273 33.865 106.273 33.9114C106.273 34.0195 106.289 34.1277 106.297 34.2281C106.297 34.2744 106.304 34.3208 106.312 34.3671C106.32 34.4676 106.335 34.568 106.351 34.6761C106.351 34.7225 106.366 34.7766 106.374 34.8229C106.389 34.9233 106.405 35.0238 106.428 35.1165C106.436 35.1705 106.444 35.2169 106.459 35.271C106.482 35.3637 106.498 35.4641 106.521 35.5568C106.536 35.6109 106.544 35.6572 106.559 35.7113C106.583 35.804 106.606 35.8967 106.637 35.9894C106.652 36.0358 106.668 36.0898 106.683 36.1362C106.714 36.2289 106.737 36.3216 106.768 36.4143C106.784 36.4606 106.799 36.5147 106.822 36.5611C106.853 36.6538 106.884 36.7387 106.923 36.8314C106.938 36.8778 106.961 36.9241 106.977 36.9705C107.016 37.0632 107.054 37.1482 107.093 37.2409C107.108 37.2872 107.132 37.3258 107.155 37.3722C107.201 37.4649 107.24 37.5576 107.286 37.6426C107.302 37.6735 107.317 37.7044 107.34 37.743C107.51 38.0674 107.696 38.3842 107.905 38.6932C107.92 38.7164 107.936 38.7473 107.951 38.7704C108.005 38.8477 108.059 38.9172 108.113 38.9945C108.144 39.0408 108.183 39.0872 108.214 39.1335C108.268 39.203 108.314 39.2648 108.368 39.3344C108.407 39.3884 108.446 39.4348 108.484 39.4889C108.539 39.5507 108.585 39.6125 108.639 39.6743C108.685 39.7283 108.724 39.7824 108.77 39.8288C108.825 39.8906 108.879 39.9446 108.933 40.0064C108.979 40.0605 109.026 40.1146 109.08 40.1609C109.134 40.215 109.188 40.2691 109.242 40.3232C109.296 40.3772 109.343 40.4236 109.397 40.4777C109.451 40.5317 109.505 40.5858 109.559 40.6322C109.613 40.6862 109.667 40.7326 109.721 40.7789C109.775 40.833 109.837 40.8794 109.891 40.9257C109.946 40.9721 110.007 41.0262 110.061 41.0725C110.116 41.1189 110.177 41.1652 110.232 41.2116C110.293 41.2579 110.355 41.3043 110.409 41.3506C110.471 41.397 110.525 41.4433 110.587 41.4819C110.649 41.5283 110.711 41.5746 110.78 41.621C110.842 41.6596 110.896 41.706 110.958 41.7446C111.028 41.7909 111.09 41.8296 111.159 41.8759C111.221 41.9145 111.275 41.9532 111.337 41.9918C111.407 42.0381 111.476 42.0768 111.546 42.1154C111.608 42.154 111.662 42.1849 111.724 42.2235C111.801 42.2699 111.87 42.3085 111.948 42.3471C112.002 42.378 112.064 42.4089 112.118 42.4398C112.211 42.4939 112.311 42.5403 112.404 42.5866C112.443 42.6021 112.481 42.6252 112.52 42.6484C116.973 44.8192 121.24 44.1934 125.013 40.9798C125.345 40.694 126.018 40.4854 126.551 40.4468C126.868 40.4236 127.131 40.4622 127.247 40.5781C127.417 40.748 127.564 40.9721 127.68 41.227C127.765 41.4047 127.827 41.6055 127.881 41.7987C127.896 41.8527 127.904 41.9068 127.919 41.9686C127.927 42.0227 127.942 42.0768 127.95 42.1308C127.997 42.4476 127.997 42.7566 127.935 43.0192C127.896 43.1892 127.857 43.3591 127.819 43.5213C127.68 44.1162 127.564 44.711 127.479 45.3058C127.463 45.4294 127.448 45.5608 127.432 45.6844C127.316 46.6577 127.301 47.6388 127.448 48.6353C127.471 48.8053 127.502 48.983 127.54 49.1529C127.757 50.2267 128.167 51.2155 128.716 52.1039C128.932 52.4593 129.179 52.7992 129.442 53.1236C132.736 57.1561 139.229 58.4771 143.837 54.5528C144.223 54.2206 144.625 53.8961 144.981 53.5408C145.476 53.0541 145.754 52.7683 146.04 52.6215C146.04 52.6215 146.04 52.6215 146.048 52.6215C146.048 52.6215 146.063 52.6215 146.071 52.6138C146.442 52.4361 146.859 52.467 147.779 52.552C148.181 53.5948 148.05 54.3287 147.176 55.1012C143.35 58.4771 139.585 61.9225 135.828 65.3756C135.797 65.4065 135.758 65.4296 135.727 65.4605C135.503 65.6537 135.287 65.7773 135.07 65.8391C134.854 65.9009 134.63 65.9009 134.374 65.8391C134.258 65.8159 134.135 65.785 134.003 65.7309C129.813 64.2168 125.762 62.4632 121.828 60.5011C121.039 60.1071 120.258 59.7054 119.485 59.2959C111.84 55.2557 104.665 50.3967 97.8702 44.8887C97.7697 44.8114 97.6692 44.7265 97.5687 44.6492C97.3755 44.487 97.1745 44.3248 96.9812 44.1625C96.7261 43.954 96.471 43.7377 96.2159 43.5291C95.7056 43.1042 95.1954 42.6716 94.6852 42.2313C93.2937 41.0262 91.9176 39.7979 90.5879 38.5387C89.9463 37.9361 89.3124 37.3181 88.6862 36.6924C88.3692 36.3757 88.0523 36.0589 87.7353 35.7345C85.8877 33.8496 84.1174 31.8874 82.4321 29.8248C81.2106 28.3339 80.8318 27.0051 81.4735 25.1048L81.4967 25.1434ZM107.812 157.613C99.0685 160.873 89.954 161.73 80.5845 160.78C75.0029 160.209 69.4987 158.857 64.3501 156.624C51.3239 150.969 42.2172 141.522 37.1768 128.196C35.6693 124.202 34.7493 120.069 34.2159 115.828C33.6748 111.502 33.5897 107.168 33.9995 102.842C35.1668 90.4821 39.6738 79.5742 48.5099 70.6518C49.2598 69.887 50.0406 69.1609 50.8291 68.4656C54.8877 65.4528 57.7635 66.2408 60.2528 66.2099C59.1473 65.1979 57.9645 64.4872 56.7276 64.0005C56.7276 64.0005 56.7122 64.0005 56.7044 63.9928C56.5807 63.9464 56.4493 63.9001 56.3256 63.8537C56.2715 63.8383 56.2174 63.8151 56.171 63.7997C56.086 63.7688 56.0009 63.7456 55.9159 63.7147C55.8618 63.6992 55.8077 63.6838 55.7536 63.6606C55.6608 63.6297 55.568 63.6065 55.4753 63.5834C55.4289 63.5679 55.3902 63.5602 55.3438 63.5447C55.2124 63.5138 55.081 63.4752 54.9496 63.452C54.9032 63.4443 54.8491 63.4289 54.8027 63.4211C54.7099 63.398 54.6172 63.3825 54.5244 63.3671C54.4703 63.3593 54.4162 63.3439 54.362 63.3361C54.2693 63.3207 54.1688 63.3053 54.0683 63.2898C54.0219 63.2898 53.9755 63.2744 53.9369 63.2666C53.7977 63.2435 53.6663 63.228 53.5271 63.2126C53.4807 63.2126 53.4421 63.2048 53.3957 63.1971C53.2952 63.1816 53.1947 63.1739 53.0942 63.1662C53.0401 63.1662 52.986 63.1585 52.9319 63.1507C52.8314 63.143 52.7309 63.1353 52.6381 63.1276C52.5917 63.1276 52.5453 63.1276 52.499 63.1198C52.3598 63.1121 52.2206 63.1044 52.0738 63.0967C52.0351 63.0967 51.9965 63.0967 51.9655 63.0967C51.8573 63.0967 51.7491 63.0889 51.6408 63.0889C51.5867 63.0889 51.5326 63.0889 51.4785 63.0889C51.378 63.0889 51.2775 63.0889 51.177 63.0889C51.1306 63.0889 51.0765 63.0889 51.0301 63.0889C50.891 63.0889 50.7441 63.0889 50.6049 63.0889C50.574 63.0889 50.5354 63.0889 50.5044 63.0889C50.3885 63.0889 50.2725 63.0889 50.1566 63.0967C50.1024 63.0967 50.0406 63.0967 49.9865 63.0967C49.8937 63.0967 49.8009 63.0967 49.7004 63.1121C49.6463 63.1121 49.5845 63.1121 49.5304 63.1198C49.4144 63.1198 49.2985 63.1353 49.1825 63.1353C49.1516 63.1353 49.1284 63.1353 49.0975 63.1353C49.9092 59.744 53.9137 55.3793 58.1655 52.4979C60.7785 50.7288 63.492 49.516 65.6179 49.431C65.7261 49.7941 65.8343 50.1572 65.9503 50.5203C65.9812 50.6207 66.0122 50.7211 66.0508 50.8215C66.1436 51.0919 66.2286 51.37 66.3291 51.6327C66.36 51.7254 66.391 51.8181 66.4219 51.9031C66.6847 52.6292 66.963 53.3322 67.2645 54.0197C67.2722 54.0429 67.2877 54.0661 67.2954 54.0892C67.4423 54.4214 67.5892 54.7459 67.7438 55.0703C67.7593 55.1012 67.7747 55.1244 67.7825 55.1553C71.0989 61.9843 76.5645 66.7043 84.9214 68.5429C84.1174 67.7472 83.2825 66.9824 82.5171 66.1558C79.7727 63.1894 77.3608 60.0376 75.4668 56.6076C75.2503 56.2136 75.0416 55.8197 74.8406 55.418C74.8406 55.418 74.8406 55.4025 74.8328 55.3948C74.6318 55.0008 74.4386 54.5991 74.253 54.1974L74.2298 54.151C74.0443 53.7571 73.8742 53.3554 73.7042 52.9537C73.6964 52.9305 73.6887 52.9073 73.681 52.8919C73.5186 52.4902 73.3563 52.0885 73.2094 51.6867C73.2017 51.6636 73.1862 51.6327 73.1785 51.6095C73.0316 51.2078 72.8847 50.7984 72.7533 50.3889C72.7456 50.358 72.7378 50.3271 72.7224 50.304C72.5909 49.8945 72.4595 49.4774 72.3436 49.0602C72.3436 49.037 72.3281 49.0061 72.3204 48.9752C72.2044 48.5504 72.0885 48.1178 71.988 47.6852C71.988 47.6697 71.9802 47.6543 71.9725 47.6311C71.8643 47.183 71.7715 46.735 71.6865 46.2792C71.4236 44.8964 71.2613 43.5291 71.2149 42.1695C71.1762 41.2193 71.1994 40.2691 71.269 39.3266C71.4855 36.3139 72.2276 33.3629 73.4491 30.4583C73.4491 30.4428 73.4645 30.4274 73.4722 30.4119C73.5495 30.2342 73.6655 30.0565 73.8356 29.7475C74.1293 30.1029 74.3922 30.4351 74.6473 30.7518C74.6705 30.7827 74.7014 30.8136 74.7246 30.8445C74.8483 30.999 74.972 31.1535 75.0957 31.3003C75.6291 31.9415 76.1625 32.5749 76.6959 33.2007C76.8583 33.3938 77.0283 33.5792 77.1907 33.7723C77.5695 34.2126 77.956 34.6452 78.3426 35.0778C78.5358 35.2941 78.7214 35.5027 78.9146 35.7113C79.2934 36.1285 79.6722 36.5379 80.051 36.9473C80.2366 37.1482 80.4221 37.3413 80.6076 37.5421C81.0406 37.9979 81.4735 38.4537 81.9141 38.9095C82.0455 39.0408 82.177 39.1799 82.3007 39.3112C83.468 40.5008 84.6508 41.6673 85.8568 42.8029C85.9727 42.9188 86.0964 43.0269 86.2201 43.1351C86.7071 43.5909 87.1942 44.0467 87.6889 44.4947C87.8281 44.626 87.975 44.7496 88.1141 44.881C88.6166 45.329 89.1191 45.7771 89.6216 46.2097C89.7376 46.3101 89.8458 46.4105 89.9617 46.511C91.879 48.1641 93.8425 49.7555 95.8525 51.2773C95.8912 51.3005 95.9221 51.3314 95.9607 51.3546C96.5947 51.8335 97.2363 52.3048 97.8779 52.776C97.9398 52.8223 98.0016 52.8687 98.0712 52.915C98.7283 53.3863 99.3854 53.8575 100.05 54.3133C100.066 54.3287 100.089 54.3364 100.104 54.3519C107.58 59.5277 115.643 63.846 124.278 67.3223C124.425 67.3841 124.572 67.4382 124.727 67.5C125.098 67.6467 125.476 67.8012 125.847 67.9403C126.257 68.1025 126.675 68.257 127.092 68.4115C127.401 68.5274 127.718 68.6433 128.028 68.7592C128.43 68.9059 128.839 69.0527 129.249 69.1995C129.458 69.2767 129.666 69.3463 129.875 69.4235C130.463 69.6321 131.05 69.8329 131.638 70.0338C131.661 70.0338 131.676 70.0492 131.7 70.057C132.388 70.2887 132.936 70.59 133.424 70.9994C133.771 71.293 134.088 71.6406 134.382 72.0578C136.268 74.7306 138.155 77.4035 140.041 80.0687C144.602 86.5114 149.179 92.9386 153.747 99.3813C153.848 99.5204 153.948 99.6594 154.049 99.7985C154.273 100.123 154.497 100.447 154.706 100.749C154.598 100.88 154.497 100.996 154.397 101.104C153.662 101.9 153.175 101.985 152.426 101.428C152.286 101.328 152.139 101.204 151.985 101.065C150.253 99.5049 148.908 99.0723 147.068 99.5822C146.643 99.6981 146.195 99.868 145.7 100.084C144.849 100.455 143.906 100.695 142.986 100.818C142.855 100.834 142.724 100.841 142.6 100.849C142.584 100.849 142.569 100.849 142.546 100.849C142.43 100.849 142.306 100.849 142.198 100.834C142.175 100.834 142.159 100.834 142.136 100.834C142.02 100.818 141.912 100.803 141.804 100.772C141.788 100.772 141.773 100.764 141.757 100.756C141.641 100.725 141.533 100.695 141.425 100.648C141.317 100.602 141.208 100.548 141.108 100.494C141.1 100.494 141.092 100.486 141.085 100.478C140.984 100.424 140.891 100.355 140.799 100.285C140.783 100.277 140.775 100.27 140.76 100.254C140.667 100.185 140.582 100.107 140.489 100.023C140.482 100.015 140.474 100.007 140.466 99.9916C140.381 99.8989 140.288 99.8062 140.211 99.7058C140.118 99.5899 140.026 99.4586 139.94 99.3195C139.624 98.8097 139.276 98.0217 138.564 98.4543C138.016 98.7865 137.389 99.5127 137.382 100.069C137.366 101.073 137.606 102.186 138.07 103.082C138.719 104.364 139.662 105.368 140.783 106.179C140.93 106.288 141.085 106.396 141.239 106.496C141.255 106.512 141.278 106.519 141.293 106.535C141.456 106.635 141.61 106.736 141.78 106.836C141.935 106.929 142.09 107.014 142.244 107.099C142.283 107.122 142.322 107.137 142.36 107.16C142.515 107.245 142.677 107.33 142.839 107.408C143.814 107.887 144.517 108.42 144.981 109.022C145.058 109.123 145.128 109.215 145.19 109.316C145.893 110.467 145.762 111.873 144.842 113.634C143.829 115.565 142.19 116.817 140.257 117.62C140.242 117.62 140.234 117.628 140.219 117.636C140.18 117.651 140.141 117.667 140.103 117.682C132.565 120.749 124.935 121.715 117.243 118.161C115.427 117.319 113.795 116.176 112.504 114.569C114.955 115.434 117.406 116.137 120.057 115.419C114.097 109.447 113.672 102.827 117.614 95.457C115.21 96.608 113.417 98.1839 112.041 100.216C110.618 102.309 110.293 104.65 110.711 107.253C108.067 107.029 106.049 105.7 103.9 104.233C103.382 111.749 104.897 118.663 108.322 125.183C110.1 128.567 112.311 131.556 114.893 134.237C117.104 136.894 119.647 139.505 122.709 142.194C122.902 142.364 123.103 142.541 123.304 142.711C123.126 142.711 122.956 142.711 122.771 142.711C122.747 142.711 122.717 142.711 122.686 142.711C122.531 142.711 122.376 142.711 122.214 142.696C122.199 142.696 122.191 142.696 122.175 142.696C121.82 142.68 121.456 142.649 121.085 142.611C115.991 142.07 109.799 139.482 104.982 136.075C102.725 134.476 100.924 133.055 99.3622 131.525C99.3236 131.525 99.2849 131.525 99.2463 131.525C96.1076 127.825 93.4174 123.785 91.446 119.219C89.2428 114.098 88.2069 108.783 89.1191 103.236C89.4438 101.251 90.1318 99.3273 90.673 97.3033C85.4548 98.0449 80.8628 100.455 76.2321 103.537C78.072 92.7223 83.6149 84.4874 91.8635 77.7511C85.8104 77.5889 80.9555 75.3255 77.0438 70.8681C77.6236 72.4054 78.2111 73.9504 79.162 75.2328C80.1129 76.5151 81.4194 77.5348 82.6253 78.7168C77.7318 82.9733 74.3458 88.319 72.4363 94.5995C70.55 100.787 70.0785 107.083 70.9598 113.665C74.5855 111.085 78.0101 108.651 81.9992 106.797C82.0842 107.686 82.1229 108.366 82.2234 109.03C83.1588 115.457 85.8722 121.12 89.7839 126.234C91.3301 128.258 93.0076 130.112 94.8011 131.827C88.6398 132.553 82.7954 134.546 77.7086 138.084C77.67 138.115 77.6313 138.146 77.585 138.169C77.3608 138.323 77.1366 138.486 76.9124 138.656C76.8273 138.717 76.7423 138.779 76.665 138.841C76.379 139.057 76.0852 139.281 75.8069 139.513C75.7914 139.521 75.7837 139.529 75.7682 139.544C75.4668 139.791 75.1653 140.038 74.8715 140.293C74.8096 140.347 74.7478 140.409 74.6782 140.463C74.454 140.656 74.2298 140.857 74.0134 141.066C73.9206 141.151 73.8279 141.244 73.7274 141.336C73.5418 141.514 73.3563 141.692 73.1707 141.877C73.0702 141.977 72.9697 142.078 72.8693 142.186C72.6914 142.364 72.5136 142.549 72.3436 142.734C72.2431 142.843 72.1503 142.943 72.0498 143.051C71.8643 143.252 71.6865 143.453 71.5087 143.661C71.4236 143.754 71.3386 143.847 71.2613 143.947C71.0062 144.249 70.7433 144.558 70.4959 144.874C69.9703 145.531 70.782 146.396 71.47 145.909C72.3745 145.268 73.3949 144.643 74.5159 144.094C76.3944 143.182 78.5513 142.495 80.9323 142.364C80.9478 142.364 80.9633 142.364 80.9787 142.364C81.2802 142.348 81.5817 142.34 81.8755 142.333C90.8508 142.209 98.852 147.478 106.737 154.546C107.217 154.971 107.696 155.404 108.167 155.844C108.747 156.377 108.562 157.358 107.827 157.636L107.812 157.613Z" fill="#0D2D6C"/>
<path d="M55.0114 114.476C52.9241 114.662 50.3653 115.666 48.5717 117.304C48.3476 117.512 48.1156 117.721 47.8373 117.991C47.6904 117.682 47.5668 117.458 47.474 117.226C46.8246 115.596 45.5645 112.058 44.9461 106.357C43.9179 96.8398 45.4331 88.9216 45.4331 88.9216C43.7942 93.1009 41.7533 98.5007 41.4363 109.254C41.1735 117.983 43.5468 124.256 45.2862 128.188C47.1493 125.971 48.8578 123.854 51.2852 122.371C51.4707 123.005 51.6099 123.499 51.7568 124.001C52.0196 124.913 52.3134 125.809 52.6149 126.697C54.4007 131.008 57.1837 134.948 60.3687 138.354C60.2992 138.192 57.3615 131.131 56.1091 125.253C54.9805 119.984 55.0269 114.638 55.0114 114.484V114.476Z" fill="#0D2D6C"/>
</g>
<defs>
<clipPath id="clip0_514_590">
<rect width="200" height="185" fill="white" transform="translate(0 7.7002)"/>
</clipPath>
</defs>
</svg>
